<mxfile host="app.diagrams.net" modified="2021-09-27T10:53:51.642Z" agent="5.0 (Windows NT 10.0; Win64; x64) AppleWebKit/537.36 (KHTML, like Gecko) Chrome/93.0.4577.82 Safari/537.36" etag="xbaHU9ouJtfK3_Tf4Yln" version="15.3.5" type="github">
  <diagram id="qZ8d81qlqGGOlYh2GW0v" name="Page-1">
    <mxGraphModel dx="813" dy="435" grid="1" gridSize="10" guides="1" tooltips="1" connect="1" arrows="1" fold="1" page="1" pageScale="1" pageWidth="850" pageHeight="1100" math="0" shadow="0">
      <root>
        <mxCell id="0" />
        <mxCell id="1" parent="0" />
        <mxCell id="SiOv3Ex6mcSSpP4s4eSr-1" value="Begin Game" style="rounded=0;whiteSpace=wrap;html=1;hachureGap=4;pointerEvents=0;" vertex="1" parent="1">
          <mxGeometry x="365" width="120" height="60" as="geometry" />
        </mxCell>
        <mxCell id="SiOv3Ex6mcSSpP4s4eSr-2" value="Guess Letter" style="whiteSpace=wrap;html=1;aspect=fixed;hachureGap=4;pointerEvents=0;" vertex="1" parent="1">
          <mxGeometry x="385" y="100" width="80" height="80" as="geometry" />
        </mxCell>
        <mxCell id="SiOv3Ex6mcSSpP4s4eSr-3" value="Guessed Correctly" style="whiteSpace=wrap;html=1;aspect=fixed;hachureGap=4;pointerEvents=0;" vertex="1" parent="1">
          <mxGeometry x="385" y="200" width="80" height="80" as="geometry" />
        </mxCell>
        <mxCell id="SiOv3Ex6mcSSpP4s4eSr-6" value="Check if last letter&lt;br&gt;" style="rounded=1;whiteSpace=wrap;html=1;hachureGap=4;pointerEvents=0;" vertex="1" parent="1">
          <mxGeometry x="160" y="210" width="120" height="60" as="geometry" />
        </mxCell>
        <mxCell id="SiOv3Ex6mcSSpP4s4eSr-9" value="check if last letter&amp;nbsp;&lt;br&gt;" style="rounded=1;whiteSpace=wrap;html=1;hachureGap=4;pointerEvents=0;" vertex="1" parent="1">
          <mxGeometry x="570" y="210" width="120" height="60" as="geometry" />
        </mxCell>
        <object label="" placeholders="1" id="SiOv3Ex6mcSSpP4s4eSr-20">
          <mxCell style="endArrow=classic;startSize=14;endSize=14;sourcePerimeterSpacing=8;targetPerimeterSpacing=8;html=1;" edge="1" parent="1">
            <mxGeometry relative="1" as="geometry">
              <mxPoint x="385" y="239.71" as="sourcePoint" />
              <mxPoint x="285" y="239.71" as="targetPoint" />
            </mxGeometry>
          </mxCell>
        </object>
        <mxCell id="SiOv3Ex6mcSSpP4s4eSr-21" value="Yes" style="edgeLabel;resizable=0;html=1;align=center;verticalAlign=middle;" connectable="0" vertex="1" parent="SiOv3Ex6mcSSpP4s4eSr-20">
          <mxGeometry relative="1" as="geometry" />
        </mxCell>
        <mxCell id="SiOv3Ex6mcSSpP4s4eSr-22" value="" style="endArrow=classic;html=1;startSize=14;endSize=14;sourcePerimeterSpacing=8;targetPerimeterSpacing=8;" edge="1" parent="1">
          <mxGeometry relative="1" as="geometry">
            <mxPoint x="465" y="239.70999999999998" as="sourcePoint" />
            <mxPoint x="565" y="239.70999999999998" as="targetPoint" />
          </mxGeometry>
        </mxCell>
        <mxCell id="SiOv3Ex6mcSSpP4s4eSr-23" value="No" style="edgeLabel;resizable=0;html=1;align=center;verticalAlign=middle;" connectable="0" vertex="1" parent="SiOv3Ex6mcSSpP4s4eSr-22">
          <mxGeometry relative="1" as="geometry" />
        </mxCell>
        <mxCell id="SiOv3Ex6mcSSpP4s4eSr-24" value="" style="endArrow=classic;html=1;startSize=14;endSize=14;sourcePerimeterSpacing=8;targetPerimeterSpacing=8;" edge="1" parent="1">
          <mxGeometry relative="1" as="geometry">
            <mxPoint x="219.71" y="210" as="sourcePoint" />
            <mxPoint x="220" y="150" as="targetPoint" />
          </mxGeometry>
        </mxCell>
        <mxCell id="SiOv3Ex6mcSSpP4s4eSr-25" value="No" style="edgeLabel;resizable=0;html=1;align=center;verticalAlign=middle;" connectable="0" vertex="1" parent="SiOv3Ex6mcSSpP4s4eSr-24">
          <mxGeometry relative="1" as="geometry" />
        </mxCell>
        <mxCell id="SiOv3Ex6mcSSpP4s4eSr-26" value="" style="endArrow=classic;html=1;startSize=14;endSize=14;sourcePerimeterSpacing=8;targetPerimeterSpacing=8;" edge="1" parent="1">
          <mxGeometry relative="1" as="geometry">
            <mxPoint x="219.71" y="270" as="sourcePoint" />
            <mxPoint x="360" y="390" as="targetPoint" />
          </mxGeometry>
        </mxCell>
        <mxCell id="SiOv3Ex6mcSSpP4s4eSr-27" value="Yes" style="edgeLabel;resizable=0;html=1;align=center;verticalAlign=middle;" connectable="0" vertex="1" parent="SiOv3Ex6mcSSpP4s4eSr-26">
          <mxGeometry relative="1" as="geometry" />
        </mxCell>
        <mxCell id="SiOv3Ex6mcSSpP4s4eSr-28" value="" style="endArrow=classic;html=1;startSize=14;endSize=14;sourcePerimeterSpacing=8;targetPerimeterSpacing=8;" edge="1" parent="1">
          <mxGeometry width="50" height="50" relative="1" as="geometry">
            <mxPoint x="230" y="150" as="sourcePoint" />
            <mxPoint x="380" y="150" as="targetPoint" />
          </mxGeometry>
        </mxCell>
        <mxCell id="SiOv3Ex6mcSSpP4s4eSr-29" value="Game Over" style="rounded=1;whiteSpace=wrap;html=1;hachureGap=4;pointerEvents=0;" vertex="1" parent="1">
          <mxGeometry x="365" y="370" width="120" height="60" as="geometry" />
        </mxCell>
        <mxCell id="SiOv3Ex6mcSSpP4s4eSr-30" value="" style="endArrow=classic;html=1;startSize=14;endSize=14;sourcePerimeterSpacing=8;targetPerimeterSpacing=8;exitX=0.423;exitY=0.021;exitDx=0;exitDy=0;exitPerimeter=0;" edge="1" parent="1" source="SiOv3Ex6mcSSpP4s4eSr-9">
          <mxGeometry relative="1" as="geometry">
            <mxPoint x="620" y="200" as="sourcePoint" />
            <mxPoint x="620" y="149.99999999999994" as="targetPoint" />
          </mxGeometry>
        </mxCell>
        <mxCell id="SiOv3Ex6mcSSpP4s4eSr-31" value="No" style="edgeLabel;resizable=0;html=1;align=center;verticalAlign=middle;" connectable="0" vertex="1" parent="SiOv3Ex6mcSSpP4s4eSr-30">
          <mxGeometry relative="1" as="geometry" />
        </mxCell>
        <mxCell id="SiOv3Ex6mcSSpP4s4eSr-32" value="" style="endArrow=classic;html=1;startSize=14;endSize=14;sourcePerimeterSpacing=8;targetPerimeterSpacing=8;" edge="1" parent="1">
          <mxGeometry width="50" height="50" relative="1" as="geometry">
            <mxPoint x="615" y="150" as="sourcePoint" />
            <mxPoint x="465" y="150" as="targetPoint" />
          </mxGeometry>
        </mxCell>
        <mxCell id="SiOv3Ex6mcSSpP4s4eSr-33" value="" style="endArrow=classic;html=1;startSize=14;endSize=14;sourcePerimeterSpacing=8;targetPerimeterSpacing=8;" edge="1" parent="1">
          <mxGeometry relative="1" as="geometry">
            <mxPoint x="629.71" y="270" as="sourcePoint" />
            <mxPoint x="490" y="390" as="targetPoint" />
          </mxGeometry>
        </mxCell>
        <mxCell id="SiOv3Ex6mcSSpP4s4eSr-34" value="Yes" style="edgeLabel;resizable=0;html=1;align=center;verticalAlign=middle;" connectable="0" vertex="1" parent="SiOv3Ex6mcSSpP4s4eSr-33">
          <mxGeometry relative="1" as="geometry" />
        </mxCell>
        <mxCell id="SiOv3Ex6mcSSpP4s4eSr-35" value="" style="endArrow=classic;html=1;startSize=14;endSize=14;sourcePerimeterSpacing=8;targetPerimeterSpacing=8;" edge="1" parent="1">
          <mxGeometry width="50" height="50" relative="1" as="geometry">
            <mxPoint x="424" y="60" as="sourcePoint" />
            <mxPoint x="424" y="100" as="targetPoint" />
          </mxGeometry>
        </mxCell>
        <mxCell id="SiOv3Ex6mcSSpP4s4eSr-36" value="" style="endArrow=classic;html=1;startSize=14;endSize=14;sourcePerimeterSpacing=8;targetPerimeterSpacing=8;" edge="1" parent="1">
          <mxGeometry width="50" height="50" relative="1" as="geometry">
            <mxPoint x="424" y="180" as="sourcePoint" />
            <mxPoint x="424" y="200" as="targetPoint" />
          </mxGeometry>
        </mxCell>
      </root>
    </mxGraphModel>
  </diagram>
</mxfile>
